<svg xmlns="http://www.w3.org/2000/svg" width="300" height="300" viewBox="0 0 500.00001 500.00001"><defs><filter id="a" color-interpolation-filters="sRGB"><feFlood flood-opacity=".204" flood-color="#000" result="flood"/><feComposite in="flood" in2="SourceGraphic" operator="in" result="composite1"/><feGaussianBlur in="composite1" stdDeviation="3" result="blur"/><feOffset dx="25" dy="25" result="offset"/><feComposite in="offset" in2="SourceGraphic" operator="out" result="composite2"/></filter></defs><g transform="translate(0 -552.362)"><path d="M217.115 972.64c-61.62-1.803-210.84-9.735-212.395-11.29C4.273 960.9.003 606.853 0 569.993v-17.632h478.18l1.154 28.695c1.893 47.005 1.492 249.93-.557 281.766-2.372 36.852-5.163 63.027-8.753 82.08-3.478 18.46-2.728 17.827-25.422 21.472-43.887 7.05-124.612 9.272-227.487 6.264z" fill="#111"/><path d="M45.488 869.997c-.265-.055-1.494-.323-2.73-.596l-2.248-.496 1.094-.694c1.17-.742 1.52-1.474 1.235-2.59-.093-.36-.25-1.506-.348-2.543-.157-1.65-.27-1.975-.904-2.61-.4-.398-1.14-.867-1.647-1.04l-.92-.318 1.082-.636c1.108-.65 2.775-.83 4.487-.488.688.137.717.188.512.903-.79 2.754.786 5.19 5.358 8.284 1.318.892 2.314 1.703 2.213 1.802-.272.268-4.96 1.18-5.895 1.15-.444-.017-1.024-.074-1.29-.13zm95.97-2.592c-.73-.16-1.593-.438-1.916-.616l-.587-.324.867-.445c.98-.5 1.877-1.523 1.877-2.135 0-.225-.278-.67-.618-.988-.58-.545-.607-.674-.452-2.155.21-2.004.613-2.784 1.738-3.355l.9-.458.03 1.044c.018.643.268 1.452.65 2.105.796 1.356 3.28 3.68 5.637 5.27 1.33.897 1.747 1.296 1.502 1.433-.718.403-4.46.954-6.336.935-1.08-.01-2.562-.152-3.292-.313zm-35.404-5.802c-2.152-.41-3.258-.766-4.795-1.542l-1.208-.608.845-.344c1.078-.44 2.173-1.47 2.173-2.046 0-.246-.164-.696-.363-1-.326-.498-.32-.763.05-2.528l.415-1.972h2.264l.278 1.16c.45 1.868 1.607 3.602 4.163 6.23 1.344 1.38 2.286 2.53 2.145 2.618-.533.33-4.305.35-5.968.033zm33.043-3.898c-.295-.207-.536-.56-.536-.785 0-.224.56-1.332 1.24-2.46l1.24-2.053-1.725-9.278c-.95-5.104-1.772-9.325-1.828-9.38-.056-.056-.228-.024-.382.07-.183.114-.23.563-.14 1.293.14 1.103.136 1.097-.417-.45-.308-.864-.735-1.905-.948-2.313-.58-1.108-2.195-2.456-3.3-2.754-.878-.236-.947-.31-.69-.72.547-.876 1.182-.777 3.1.482 1.004.66 1.952 1.2 2.106 1.2.153 0 .667-.34 1.14-.757.475-.415.893-.714.93-.663.037.05.364 2.198.725 4.77.363 2.573 1.36 8.426 2.216 13.006.856 4.58 1.496 8.426 1.422 8.546-.175.282-3.264 2.62-3.462 2.62-.084 0-.394-.168-.69-.375zm-95.893-.83l-1.32-.122-1.508-11.83c-.94-7.366-1.512-12.754-1.518-14.277-.01-2.308.023-2.468.558-2.82.88-.575 1.364-1.857 1.364-3.605 0-1.78.238-2.12 1.914-2.71.987-.348 2.19-.493 2.19-.263 0 .057-.117.41-.26.784-.19.493-.182 1.804.027 4.743.257 3.578.246 4.168-.086 4.95-.28.654-.406 2.025-.486 5.233-.06 2.39-.228 4.725-.375 5.19-.15.474-.267 2.58-.267 4.827 0 3.775.285 6.408.967 8.938.15.557.238 1.03.196 1.05-.043.02-.67-.018-1.396-.085zm58.405-6.673c-.368-.964.225-1.638 2.403-2.733l1.897-.955 1.142-3.09c1.735-4.696 5.192-14.58 5.192-14.843 0-.128-.183-.197-.407-.154-.23.044-.658.66-.977 1.406-.313.73-.513 1.056-.443.724.37-1.77.677-5.306.53-6.09-.095-.496-.547-1.393-1.006-1.995-.458-.602-.834-1.147-.834-1.213 0-.065.247-.118.55-.118.914 0 1.635.706 2.353 2.306.386.862.958 1.703 1.318 1.94.59.386.695.388 1.452.027l.815-.39-.32.896c-.175.493-1.298 3.34-2.496 6.328-2.56 6.38-3.425 8.8-4.288 11.966-.35 1.28-.98 3.156-1.404 4.166l-.77 1.837-1.442.3c-2.345.487-2.985.426-3.267-.315zm33.785-21.663c-.584-.447-1.194-1.07-1.355-1.39-.425-.838-1.193-4.428-1.768-8.262-.94-6.277-2.71-9.727-5.917-11.537-1.54-.868-1.86-1.22-1.756-1.95.07-.503.22-.562 1.587-.627l1.51-.072v.797c0 1.053.72 2.185 1.95 3.077 1.368.99 2.39 1.15 3.576.564l.944-.467.14 1.468c.076.807.203 2.5.28 3.76.234 3.788 1.036 6.92 2.776 10.825.8 1.796.87 2.12.672 3.01-.42 1.868-1.012 2.05-2.64.806zm-89.545-1.837c0-1.075-.146-1.988-.404-2.53-.65-1.365-.195-2.652 2.226-6.29 2.4-3.61 4.592-7.934 5.673-11.195.652-1.968.71-2.353.457-2.967-.26-.626-.23-.77.26-1.29.86-.92 5.837-2.645 7.177-2.49l.666.076-.008 1.96c-.007 1.76-.097 2.14-.892 3.75-1.072 2.168-2.543 4.14-5.67 7.604-4.795 5.313-6.315 7.262-7.5 9.622-.684 1.365-1.26 3.428-1.26 4.51 0 .66-.105.923-.364.923-.287 0-.362-.348-.362-1.682zm27.304-1.116c-2.734-.735-7.527-3.507-8.417-4.868-.352-.54-.345-.544.868-.544 1.673 0 2.46-.67 2.562-2.182.04-.6.305-1.547.588-2.102.717-1.406.647-2.165-.337-3.626L67.566 811h1.45c1.245 0 1.638.12 2.768.844.724.463 1.38.945 1.458 1.072.078.126-.194.706-.605 1.29-1.495 2.12-1.26 3.474 1.462 8.386.928 1.677 1.688 3.123 1.688 3.214 0 .263-1.22.162-2.634-.22zm40.306-1.532c-.137-.257-.25-.692-.25-.966 0-.275-.217-.717-.483-.983-.265-.265-.483-.774-.483-1.13 0-.357.984-3.552 2.186-7.102 2.47-7.295 2.728-8.713 2.06-11.322-.222-.862-.724-2.137-1.117-2.833-.873-1.548-.946-2.48-.192-2.48.54 0 2.617 1.103 2.617 1.39 0 .09-.18.632-.398 1.205-.532 1.392-.17 2.61 1.203 4.042.777.81 1.265 1.105 2.04 1.23.56.09 1.017.187 1.017.218 0 .032-.756 1.646-1.68 3.587-2.506 5.264-3.185 7.437-3.33 10.66-.133 2.97-.415 3.766-1.58 4.477-.972.59-1.296.592-1.61.005zm-41.744-13.557c-.92-.5-1.63-.704-2.454-.704-1.113 0-1.24-.074-3.11-1.836-1.075-1.01-1.953-1.924-1.953-2.033 0-.11.38-.323.846-.477.466-.154.958-.487 1.094-.74.222-.416.386-.3 1.653 1.172 1.58 1.835 3.563 3.684 4.917 4.584 1.585 1.054.926 1.076-.994.034zm58.694-2.62c-.928-.582-1.585-1.587-1.995-3.054-.164-.584-.555-1.34-.87-1.68-.553-.596-.573-.75-.573-4.47 0-4.036-.36-6.424-1.484-9.85-.48-1.458-.56-1.557-1.683-2.023-.648-.27-1.18-.585-1.18-.702 0-.25.887-1.175 3.438-3.586 1.603-1.515 2.028-1.79 2.996-1.936 1.306-.2 1.93-.084 2.11.388.072.184-.19 2.156-.583 4.382-.547 3.11-.713 4.788-.715 7.243-.002 2.904.064 3.405.734 5.496.537 1.675 1.136 2.892 2.203 4.47 1.41 2.088 1.46 2.22 1.348 3.397-.143 1.488-.718 2.143-2.02 2.303-.68.083-1.16-.022-1.728-.378zm-67.298-3.396c-.082-.133-.075-1.25.015-2.48.2-2.703.06-2.895-2.152-3.008-1.293-.066-1.825.062-4.14.995-2.387.96-2.686 1.03-2.957.683-.166-.213-.302-.74-.302-1.17 0-.655.225-.976 1.364-1.946 3.94-3.357 4.55-4.106 5.143-6.31.237-.88.18-1.698-.375-5.31l-.655-4.27 1.11-4.828c1.695-7.394 1.895-8.53 1.896-10.782 0-1.682-.12-2.39-.62-3.64-.34-.854-.62-1.685-.62-1.847 0-.36 1.45-.994 2.28-.994.335 0 .964.317 1.397.705l.79.705.02 2.74c.024 3.02.048 3.093 1.76 5.325 1.47 1.918 1.96 2.863 1.96 3.772 0 1.303-.9 3.685-1.71 4.52-.62.642-.915 1.332-1.5 3.527-.68 2.54-.736 3.086-.83 7.93-.082 4.154-.025 5.584.286 7.09.426 2.06.92 3.408 1.477 4.023.323.357.256.596-.642 2.303-.55 1.047-1.11 2.04-1.244 2.206-.288.36-1.54.403-1.752.06zm14.366-.345c-2.08-.578-5.67-2.777-8.05-4.93-.685-.62-1.596-1.375-2.024-1.68-.495-.352-.862-.878-1.01-1.446-.3-1.156-.597-3.67-.435-3.67.068 0 1.63.644 3.468 1.43 4.803 2.05 6.168 2.47 7.774 2.385l1.362-.072 1.265 2.535c1.108 2.225 1.264 2.717 1.266 4.02.003 1.13-.087 1.516-.378 1.628-.587.225-2.036.136-3.24-.2zm41.88-.944c-1.022-1.02-1.24-1.88-.836-3.283.35-1.206.365-1.592.13-3.032-.147-.893.003-1.26 1.984-4.83 1.666-3 2.264-3.88 2.684-3.94.735-.108 1.187.323 1.48 1.412.216.802.14 1.21-.6 3.26-.744 2.05-.85 2.626-.85 4.598 0 1.24.123 2.522.272 2.85.38.834.103 1.692-.91 2.812-1.153 1.277-2.184 1.324-3.355.153zm-38.008-4.09c-.434-1.452-1.068-2.62-1.917-3.528-.722-.773-.77-.786-2.25-.632-1.19.123-1.866.047-3.145-.352-.897-.28-1.63-.588-1.63-.685 0-.096.226-.988.5-1.982.485-1.742.488-1.858.097-3.31-.224-.827-1.006-2.51-1.74-3.742-3.004-5.046-3.244-6.13-1.974-8.888l.748-1.62.7.35c.383.19.794.29.91.216.118-.072.464-.813.768-1.645.665-1.817 1.562-3.67 2.24-4.633l.5-.705.297.825c.44 1.22.4 1.936-.267 4.562-.584 2.302-.59 2.436-.25 4.39.686 3.904 2.686 10.158 4.235 13.24.368.73 1.283 2.016 2.033 2.857l1.365 1.528-.142 1.49c-.323 3.386-.58 3.926-1.076 2.265zm-27.578-4.096c-2.674-3.167-2.862-3.508-2.7-4.884.164-1.398-.006-1.853-1.276-3.41-.444-.545-.807-1.216-.807-1.49 0-.507 1.367-2.49 1.81-2.626.132-.04.567.42.965 1.025.4.603 1.16 1.356 1.693 1.673 1.508.897 2.427 2.003 3.402 4.098.495 1.062 1.115 2.174 1.38 2.47l.48.537-.682.983c-.6.864-2.757 2.89-3.078 2.89-.065 0-.6-.57-1.188-1.267zm4.617-4.95c-.415-1.27-1.418-2.664-3.264-4.537-1.877-1.905-1.73-1.838 1.528.693l2.475 1.922v1.414c0 1.615-.31 1.828-.74.507zm59.19-4.84l-2.27-.626 1.262-.35c.81-.225 1.398-.56 1.642-.93.354-.542.344-.63-.146-1.293l-.527-.712h.673c.37.002 1.078.116 1.576.254.88.244.905.28.907 1.386 0 .624.07 1.543.153 2.04.138.84.107.904-.426.883-.316-.014-1.596-.307-2.844-.652zm4.318-2.866c-.006-3.486-.535-6.596-1.432-8.41-.947-1.914-2.58-3.92-6.994-8.595-4.294-4.547-6.298-7.102-6.298-8.028 0-.774 2.462-3.36 4.13-4.337 1.644-.964 4.04-1.265 7.27-.915 1.472.16 2.858.387 3.078.505.463.248 1.826 5.9 2.04 8.455.417 5.006 1.402 10.484 2.318 12.894.54 1.42 1.724 2.807 3.99 4.67l.955.787-.866-.142c-1.27-.208-2.43.383-4.175 2.122-.837.835-2.083 1.988-2.768 2.563l-1.245 1.046-.004-2.615zm9.902 1.627c0-1.364.31-1.854 1.387-2.2 2.01-.645 2.36-1.894.847-3.02-.498-.37-.95-.71-1.006-.753-.056-.043-.034-.146.048-.228.082-.082.81.294 1.62.834.94.627 1.62.927 1.883.83.75-.277 2.283-1.314 2.86-1.937.83-.894.718-1.41-.457-2.138-.564-.35-1.325-.818-1.69-1.042-.598-.366-.63-.454-.33-.866.32-.436.404-.396 1.71.797.756.69 1.545 1.257 1.752 1.257.55 0 2.66-2.197 2.854-2.975.2-.8-.176-1.28-1.857-2.358-.645-.414-1.172-.9-1.172-1.083 0-.376 1.206-1.068 1.86-1.067.33 0 .438.2.452.83.01.473.287 1.22.65 1.748l1.37 1.985c.438.63.74 1.368.74 1.814 0 1.036-1.32 2.916-3.758 5.353-1.785 1.785-2.35 2.18-4.994 3.478-1.64.806-3.384 1.53-3.876 1.61l-.894.145v-1.013zm-19.48-.493c-3.225-1.31-4.345-2.282-4.04-3.502.18-.716.476-.757 1.342-.184.772.51 4.856 4.407 4.61 4.398-.098-.004-.958-.324-1.912-.712zm1.13-1.598l-1.298-1.374.71-.568c.39-.312.77-.568.842-.57.276 0 3.248 3.138 3.248 3.432 0 .196-.404.336-1.1.382-1.06.07-1.15.02-2.4-1.302zm18.696-1.648c-.31-1.232-.065-1.413.96-.713.886.603.917.664.498.97-.69.506-1.293.4-1.458-.257zm-12.955-.427c-4.495-2.418-7.835-7.39-10.673-15.888l-1.33-3.984 1.345 1.45c1.545 1.663 2.203 2.858 3.51 6.384.516 1.388 1.204 2.98 1.53 3.537.824 1.403 3.887 4.608 5.518 5.77 1.416 1.01 1.692 1.492 1.562 2.73l-.078.746-1.383-.745zm-9.562-1.426c-2.548-1.97-5.265-6.374-6.65-10.782-.92-2.93-3.047-12.098-3.047-13.134 0-1.24.814-1.99 1.595-1.467.546.366.767 1.21.93 3.558.504 7.245 1.91 12.28 4.484 16.056.872 1.28 3.86 4.327 5.023 5.12.827.566.638 1.498-.322 1.582-.537.047-1.055-.193-2.012-.932zm25.915-.422c-1.27-.777-3.78-2.88-6.654-5.578-2.17-2.032-2.857-2.832-3.08-3.576-.562-1.875-.365-1.87 1.663.037 2.143 2.015 5.74 4.52 9.063 6.313 1.18.636 2.19 1.193 2.247 1.238.265.215-1.926 2.018-2.444 2.01-.04 0-.4-.2-.797-.444zm-33.285-1.395c-.665-.575-.675-.614-.264-1.068.558-.617.65-.6 1.26.226.483.654.49.72.105 1.067-.372.335-.476.313-1.102-.226zm27.852.25c-1.17-.506-2.584-1.93-3.294-3.318-1.09-2.133-.538-1.926 2.45.918 2.453 2.336 2.804 2.76 2.293 2.76-.333.002-.985-.16-1.45-.36zm-30.72-3.01c-1.553-1.61-2.96-4.55-3.585-7.49-.802-3.772-.556-12.53.378-13.474.42-.426.954-.22 1.468.563.385.586.368.77-.35 3.815-1.55 6.59-.812 10.602 2.892 15.7.653.9 1.188 1.676 1.188 1.725 0 .05-.18.16-.4.243-.28.107-.76-.22-1.59-1.082zm39.615-.514c-2.366-1.853-10.202-8.81-11.816-10.49-1.864-1.937-2.43-2.953-2.965-5.327-.654-2.898-.432-3.836.862-3.652.71.1 1.617 1.73 2.62 4.712.852 2.542 2.095 4.594 3.63 5.997.588.535 3.24 2.424 5.896 4.198 2.655 1.774 4.91 3.298 5.01 3.386.244.215-1.225 2.188-1.63 2.188-.175 0-.9-.455-1.608-1.01zm-68.455.117c-.158-.057-.23-.25-.162-.432.216-.563-.75-2.34-2.293-4.22-.815-.993-1.48-1.875-1.48-1.96 0-.086.433-.444.964-.795.53-.35 2.404-2.038 4.164-3.748l3.2-3.11.078-4.634.08-4.634.645.156c.354.086 1.84.807 3.3 1.603 3.623 1.974 5.167 2.48 6.958 2.277.772-.087 1.566-.22 1.764-.296.197-.076-.205.607-.895 1.518-1.3 1.718-1.982 3.067-2.414 4.773-.24.96-.32 1.023-2.024 1.666-4.18 1.577-8.44 5.29-10.192 8.887-.545 1.118-1.085 2.262-1.198 2.543-.114.28-.337.464-.496.407zm23.882-1.172c-.637-.446-.68-.725-.144-.93.497-.19 1.056.26 1.056.852 0 .552-.21.57-.912.078zm-1.595-2.918c-.95-1.295-1.737-3.408-1.978-5.306-.27-2.122.623-8.614 1.458-10.61.284-.682.476-.848.91-.786.87.123.82 1.25-.163 3.545-2.165 5.058-2.1 8.585.225 12.448 1.106 1.837.765 2.37-.453.71zm-16.566-1.89c0-.55 1.284-1.878 2.448-2.53l1.054-.594-1.57 1.737c-1.603 1.775-1.93 2.01-1.93 1.388zm62.942-2.64c-2.148-.893-3.925-2.045-5.758-3.735-1.773-1.634-5.034-5.662-5.034-6.217 0-.218.29-.332.842-.332.74 0 .886.107 1.208.875.96 2.3 4.136 5.786 6.855 7.525 1.585 1.014 3.57 1.74 4.75 1.74 1.28 0 .93.59-.395.665-.695.04-1.555-.142-2.468-.52zm-72.61-.29c-.143-.382-.185-1.216-.095-1.935.156-1.25.146-1.277-.957-2.457-1.168-1.248-1.165-1.478.024-1.842.556-.17 2.164.508 2.68 1.13.156.188.47 1.054.7 1.926.468 1.79.455 1.825-1.17 3.11l-.926.736-.255-.67zm18.846-3.91c.007-.407.678-2.653.937-3.138.21-.39.506-.532 1.12-.532.46 0 .838.094.838.21 0 .38-.485 2.77-.582 2.867-.21.21-2.314.75-2.312.594zm18.87-4.092c-.12-.232-.363-.993-.538-1.69-.31-1.24-.304-1.28.32-1.933.684-.714 2.11-1.64 2.11-1.372 0 .09-.342.55-.757 1.024-.74.842-.753.9-.607 2.627.146 1.73-.06 2.252-.53 1.344zm-5.684-.012c-.066-.106-.02-.35.102-.543.174-.274.223-.23.226.193.004.558-.12.69-.328.35zm7.25-.568c-.293-1.093-.164-2.13.325-2.62.608-.608 1.236-.612 1.964-.012l.57.47-1.354 1.364c-1.29 1.3-1.36 1.338-1.506.798zm-17.868-.147c-.063-.1.242-.572.678-1.047l.792-.865.24 1.05.24 1.047h-.918c-.505 0-.97-.083-1.032-.184zm2.45-.675c-.39-.653-.442-2.274-.1-3.093.385-.92.863-1.11 1.344-.53.22.267.222.47.003.877-.156.29-.47 1.08-.698 1.75-.228.672-.476 1.12-.55.995zm35.825-1.586c-.83-.785-1.174-.96-1.69-.862l-.646.123.715-.57.713-.57 1.146 1.257c.63.69 1.15 1.338 1.155 1.438.023.376-.384.138-1.394-.816zm4.457.496c-.793-.624-.793-.897 0-2.464l.638-1.26.325 1.087c.35 1.174.417 2.15.185 2.754-.193.502-.385.482-1.15-.118zm-58.382-.607c-.622-.317-1.203-.808-1.294-1.094-.23-.733.35-3.248.96-4.155.66-.978 1.135-1.055 2.25-.365l.904.56-.724.124-.724.124-.12 2.69-.122 2.69-1.13-.575zm55.61-.42c-.156-.186-.285-1.65-.316-3.567-.043-2.638.024-3.404.354-4.065.45-.902.522-1.465.188-1.465-.306 0-1.595 3.175-2.092 5.15-.314 1.25-.54 1.696-.936 1.847-.288.11-.87.49-1.294.847-.923.777-.92.796-.29-2.667 1.202-6.598 3.627-11.374 5.25-10.34.333.213.432.634.456 1.933.016.913.043 1.85.06 2.083.045.632 1.314.54 2.55-.185 1.413-.827 1.826-.626 1.826.888 0 1.378-.236 1.888-2.324 5.024-.977 1.47-1.644 2.765-1.835 3.57-.247 1.04-.394 1.267-.818 1.267-.284 0-.636-.144-.78-.32zm-29.854-.405c-.428-.474-.42-.483.337-.483.426 0 1.095-.166 1.486-.37.392-.2.71-.283.707-.18-.005.177-1.76 1.515-1.987 1.515-.058 0-.302-.217-.542-.482zm-12.82-.382c.08-.21.145-.482.145-.604 0-.4.59-.233 1.328.373l.724.594-1.172.01c-.972.006-1.148-.057-1.026-.374zm9.32.057c0-.45 1.384-1.184 1.798-.953.263.148.08.33-.723.723-.723.354-1.075.43-1.075.23zm15.082.094c.08-.126.454-.45.834-.722.585-.417.714-.437.83-.132.096.248-.13.473-.728.722-1.016.425-1.126.44-.936.132zM68.328 750c-.953-1.036-1.797-2.135-1.874-2.445-.27-1.07 1.422-3.672 2.385-3.672.27 0 3.568 2.59 3.568 2.803 0 .07-.27.478-.597.91-.327.43-.772 1.48-.988 2.336-.216.856-.475 1.644-.577 1.752-.1.107-.964-.65-1.917-1.685zm14.03 1.365c-1.058-.646-1.14-.96-.768-2.934.275-1.457.263-2.047-.086-4.387-.514-3.433-.508-4.096.037-4.59.523-.472 1.227-.523 1.356-.097.05.166.593 2.502 1.206 5.19 1.08 4.735 1.102 4.914.717 5.674-.496.978-1.058 1.63-1.404 1.63-.145 0-.62-.22-1.057-.485zm20.064.242c-.842-.34-.995-.922-.73-2.775.183-1.275.157-2.283-.105-4.11-.435-3.027-.328-3.59.7-3.69.668-.066.786.01.92.603.475 2.087.923 3.775 1.43 5.387.968 3.078.968 3.066.035 4-.844.843-1.31.964-2.25.585zm-15.016-.498l-.816-.498.187-1.373c.255-1.876.25-2.037-.12-4.534-.18-1.207-.258-2.375-.174-2.595.224-.58 1.86-.56 1.86.023 0 .233.434 1.944.965 3.802.53 1.86.966 3.56.966 3.784 0 .56-1.163 1.89-1.65 1.888-.222 0-.77-.225-1.218-.5zm20.364.27c-1.042-.423-1.18-.863-.93-2.977.17-1.414.15-2.62-.07-4.27-.43-3.262-.405-4.203.122-4.68.62-.56 1.217-.496 1.363.145.068.298.347 1.575.62 2.836.272 1.262.768 3.3 1.102 4.532.334 1.23.54 2.447.46 2.703-.205.643-1.454 1.942-1.85 1.924-.18-.008-.547-.105-.817-.215zm-15.383-.634c-.727-.394-.79-.725-.407-2.108.195-.703.167-1.346-.122-2.742-.207-1.003-.377-2.016-.377-2.25 0-.435 1.333-1.167 1.613-.887.264.262 2.25 6.298 2.25 6.84.002.625-1.062 1.53-1.782 1.516-.28-.005-.808-.17-1.173-.37zm5.07 0c-.752-.407-.763-.462-.4-1.9.208-.83.178-1.456-.148-3.053l-.41-2.008.535-.434c1.07-.865 1.274-.636 2.36 2.655.56 1.7 1.02 3.32 1.02 3.604 0 .617-1.07 1.52-1.784 1.506-.28-.005-.808-.17-1.173-.37zm14.52-.076c-.555-.45-.56-.48-.224-1.992.424-1.914.424-2.15.01-5.356-.37-2.856-.26-3.372.747-3.492.56-.067.62.09 1.734 4.466.635 2.495 1.15 4.786 1.147 5.09-.02 1.443-2.204 2.264-3.414 1.284zm5.507.037c-.953-.075-1.138-.164-1.04-.5.39-1.325.394-2.438.023-4.647-.403-2.402-.402-2.47.062-3.093.92-1.236 1.083-1.014 2.303 3.16.632 2.16 1.146 4.228 1.143 4.594-.006.723.144.693-2.492.487zm-39.546-1.037l-1.11-.725-.504-3.193c-.462-2.924-.472-3.23-.12-3.618.21-.233.63-.424.93-.424.42 0 .587.18.718.776.093.427.632 2.18 1.196 3.893 1.37 4.167 1.165 4.778-1.11 3.29zm-14.064-4.94c-.884-1.127-1.606-2.2-1.606-2.383 0-.183.413-.8.918-1.368 1.184-1.335 1.603-1.24 3.662.842l1.563 1.578-.545.383c-.3.21-.878.97-1.284 1.69-.405.72-.82 1.307-.92 1.307-.1 0-.903-.922-1.786-2.05zm-3.463-4.393c-1.83-2.13-2.126-2.656-1.75-3.11.172-.208.6-.526.953-.71.614-.316.706-.273 2.19 1.008.854.736 1.687 1.466 1.853 1.623.24.226.056.53-.868 1.44l-1.17 1.152-1.207-1.403zm69.7.347c-.003-1.74-.4-2.744-1.22-3.084-1.01-.42-1.287-1.06-1.274-2.96.007-1.094-.078-1.61-.256-1.55-.168.055-.293 1.066-.336 2.707l-.07 2.618-.95 1.032c-.523.567-.998.954-1.056.86-.06-.094-.292-1.636-.52-3.425-.46-3.612-.38-6.087.25-7.657.788-1.967 2.305-1.515 2.78.83.5 2.464.43 2.427 2.007 1.048 1.538-1.346 2.118-1.494 2.684-.687.502.72.473 2.22-.108 5.38-.266 1.444-.483 3.367-.483 4.27v1.644h-.725c-.69 0-.725-.047-.726-1.026zm3.2.756l-.785-.227v-3.244l.965 1.448c.887 1.332 1.23 2.326.785 2.272-.1-.012-.534-.123-.966-.248zm28.67-3.49c-5.894-.67-9.187-1.45-13.792-3.262-4.977-1.96-9.114-4.758-12.926-8.743-3.79-3.962-5.193-7.08-6.27-13.943-.772-4.922-.42-15.264.592-17.37.698-1.455 2.026-1.933 5.37-1.933 3.418 0 3.61.13 3.876 2.625.437 4.083 3.44 13.995 5.877 19.396 2.208 4.893 5.467 10.28 7.306 12.075 2.02 1.974 12.627 5.2 21.676 6.594 1.46.224 4.665.478 7.12.564l4.468.156-2.656.88c-3.06 1.015-7.102 1.947-10.744 2.475-2.58.375-8.367.658-9.898.484zm-106.35-2.843c-2.085-1.985-2.302-2.407-1.5-2.913.564-.355 1.586.236 3.666 2.122l1.685 1.528-.718.632c-.396.347-.785.635-.866.64-.08.003-1.1-.9-2.265-2.01zm127.57-2.873c.11-.3.432-.578.716-.62.414-.062.517.046.517.543 0 .527-.108.62-.717.62-.64 0-.695-.057-.517-.543zm2.2.198c0-.247.217-.38.622-.38.757 0 .674.568-.1.682-.347.05-.523-.05-.523-.302zM51.005 731.26c-1.005-.776-1.685-1.487-1.732-1.812-.043-.293.043-.534.19-.534.493 0 2.64 1.2 3.508 1.963.82.72.842.78.454 1.208-.224.248-.488.45-.586.45-.1 0-.924-.574-1.834-1.276zm137.298-.837c-.005-.54.105-.785.354-.785.46 0 .464.498.008 1.1-.335.444-.355.427-.362-.315zm-59.95-1.086c-.084-.93-.478-2.344-1.028-3.682-.82-1.996-.88-2.31-.76-3.863l.13-1.69-.484 1.05c-.367.79-.492 1.592-.51 3.26-.025 2.175-.04 2.23-1.006 3.614l-.982 1.405-.166-.8c-.354-1.713-.505-8.51-.218-9.856.306-1.432 1.4-3.26 1.954-3.26.64 0 1.403 1.522 1.576 3.14l.167 1.554 1.08-.744c.595-.41 1.17-.65 1.277-.536.107.115.534 1.01.947 1.993l.754 1.785-.608 2.52c-.334 1.387-.607 3.05-.607 3.695 0 .94-.108 1.25-.538 1.55-.295.206-.606.376-.69.376-.086 0-.216-.68-.29-1.51zm37.73 1.267c-.312-.202-.306-.234.046-.238.225-.002.476.105.558.238.188.306-.13.306-.604 0zm19.65-.14c.082-.21.148-.536.148-.725 0-.205.243-.343.603-.343.51 0 .604.113.604.724 0 .65-.08.726-.75.726-.586 0-.72-.085-.605-.382zm-2.388-.584l-.374-.724h.85c.786 0 .852.056.852.724 0 .56-.108.724-.476.724-.286 0-.627-.29-.852-.724zm-19.978.307c-.89-.093-1.153-.367-.65-.678.305-.19 1.676.336 1.676.64 0 .117-.027.194-.06.172-.034-.022-.468-.083-.966-.135zm-3.14-.935c-1.144-.352-1.544-.82-.7-.82.792 0 1.97.52 1.97.868 0 .186-.028.33-.062.322l-1.207-.37zm6.234.065c-.655-.478-.142-1.35.7-1.188.678.13.76.45.276 1.086-.385.507-.417.51-.976.1zm-120.113-1.09c-1.678-.85-2.397-1.486-1.677-1.486.617 0 4.074 1.775 4.074 2.092 0 .495-.445.383-2.398-.606zm85.15.756c-.712-.108-.802-.536-.445-2.12l.163-.725.772 1.328c1.052 1.81 1.07 1.753-.49 1.517zm32.463-.404c-.628-.22-.73-.34-.495-.575.42-.42 1.396-.37 1.57.08.227.594-.21.796-1.075.494zm22.522-.175c-1.616-.27-5.632-.583-10.26-.798-10.28-.475-14.837-1.245-21.605-3.646-4.66-1.652-4.588-1.604-6.22-4.082-3.778-5.742-6.304-12.673-7.922-21.743-1.05-5.885-1.498-6.467-5.084-6.607-1.57-.06-2.512.028-3.423.323-3.183 1.035-4.155 2.99-4.652 9.36l-.146 1.87-.764-.002c-1.01-.004-3.187-.593-3.886-1.05-.646-.424-2.758-6.152-3.382-9.174-.433-2.1-.494-6.168-.122-8.26 1.503-8.462 7.806-15.962 17.494-20.816 4.957-2.484 8.052-3.51 14.362-4.755 5.034-.995 5.4-.986 11.077.27 8.22 1.82 14.51 5.328 18.527 10.328 1.837 2.288 4.265 7.058 5.358 10.525 1.786 5.668 2.702 14.73 2.702 26.728v7.755l1.157.85c1.44 1.057 3.486 3.202 4 4.193l.386.75-2.832-1.422c-1.557-.782-3.1-1.45-3.428-1.487-.562-.06-.616.04-.933 1.747-.552 2.962.02 4.272 2.638 6.05 1.322.898 1.427 1.037 1.427 1.89 0 1.013-.58 1.738-1.347 1.686-.255-.018-1.66-.233-3.12-.478zm-18.59-3.594c5.242-.856 11.19-7.504 12.792-14.29.71-3.017.397-10.925-.61-15.407-1.754-7.788-9.835-15.323-18.936-17.655-2.52-.646-6.455-.544-8.818.23-4.82 1.576-8.483 5.377-10.683 11.09-.908 2.357-.997 2.78-.97 4.645.103 6.817 5.245 17.08 12.364 24.68 3.377 3.603 6.873 6.098 9.37 6.687 1.25.294 3.76.304 5.49.022zm-42.54-37.68c1.188-.33 1.4-.916 1.212-3.354-.167-2.164.042-2.666 1.11-2.666 1.186 0 1.538-.964.96-2.624-.364-1.044-.84-1.237-2.194-.888-2.54.655-4.3 2.798-4.3 5.236 0 .92.912 3.74 1.352 4.18.44.44.644.454 1.86.116zm31.434 40.973c-.66-.2-.867-.354-.65-.488.35-.216 1.735.266 1.735.604 0 .116-.027.203-.06.193l-1.026-.31zm4.827-.284c-.132-.04-.54-.137-.905-.217-1.116-.246-.794-.684.362-.493.565.093 1.073.213 1.13.266.166.154-.32.52-.587.443zm-119.75-1.342c-.867-.316-1.037-.442-.604-.448 1.213-.016 2.414.294 2.414.622 0 .41-.283.383-1.81-.174zm114.982.097c-.233-.06-.423-.225-.423-.365 0-.3 1.432-.065 1.79.294.246.246-.543.286-1.368.07zm-30.195-12.207c-.55-1.952-.9-3.71-.896-4.513.004-1.206-.024-1.275-.35-.845-.254.337-.356 1.14-.362 2.846l-.008 2.377-.966 1.097c-.53.604-.97 1.272-.973 1.486-.006.337-.034.34-.217.027-.456-.784-.787-6.665-.506-8.988.413-3.418 1.274-4.782 2.508-3.974.603.396.888 1.12 1.23 3.126.138.81.217.892.732.762.638-.16.673-.057.976 2.918.14 1.36.926 5.522 1.22 6.458.11.345-.015.423-.676.423h-.81l-.902-3.2z" fill="#f03"/><circle cx="240.222" cy="679.92" r="30" fill="#7dffff"/><circle cx="311.508" cy="680.14" r="30" fill="#f0f"/><circle cx="383.73" cy="679.346" r="30" fill="#6f6"/><path d="M177.87 854.994c-5.373-1.03-9.324-4.484-10.537-9.213-.642-2.5-.548-7.39.196-10.255 2.073-7.988 7.267-16.097 15.73-24.56 5.72-5.72 7.648-6.943 10.502-6.67 1.472.142 2.098.424 3.942 1.778.318.234.647.117 1.13-.4 1.516-1.628 5.993-1.26 8.566.703 1.827 1.394 4.035 4.665 4.967 7.358 2.25 6.507.594 16.21-4.126 24.153-4.743 7.985-12.552 14.225-20.518 16.398-2.89.79-7.648 1.13-9.852.71zm9.123-6.328c10.93-3.015 21.237-17.58 20.563-29.055-.328-5.592-2.79-8.667-7.57-9.453-1.27-.21-1.465-.144-2.03.68-1.834 2.667-3.51 3.244-5.31 1.827-.746-.587-1-.63-1.653-.283-3.425 1.824-10.547 10.51-14.4 17.566-2.943 5.386-4.272 11.48-3.136 14.377 1.712 4.365 7.14 6.107 13.536 4.343zm53.824 5.96c-6.748-1.003-10.352-6.147-9.653-13.776.32-3.514 2.103-10.306 4.325-16.493 2.123-5.913 3.168-9.68 3.47-12.522.458-4.3 1.443-6.44 3.04-6.607 3.352-.348 4.856 1.93 4.168 6.314-.167 1.068-1.425 4.768-2.794 8.224-4.455 11.24-5.753 16.357-5.55 21.882.125 3.377.5 4.25 2.45 5.7.773.577 1.425.697 3.75.687 2.608-.01 3.017-.113 5.64-1.417 6.962-3.46 12.89-10.652 17.247-20.92 2.74-6.455 3.96-11.187 4.394-17.017.44-5.937.913-7.28 2.616-7.444 1.337-.128 1.916.296 2.817 2.06 1.506 2.954 1.13 7.632-1.274 15.92-4.66 16.05-13.516 28.105-24.663 33.57-2.618 1.282-6.358 2.318-7.784 2.155-.186-.02-1.176-.163-2.2-.315zm105.1-1.07c-.893-1.275-.61-3.135 2.013-13.293 7.66-29.66 7.063-27.017 7.124-31.487.06-4.48.736-6.828 2.187-7.604.967-.517 3.627-.493 4.912.045.7.293 3.48.43 9.128.452 7.412.027 8.314.094 10.323.77 4.584 1.543 6.76 4.14 7.032 8.392.144 2.234.06 2.69-.857 4.618-.56 1.176-1.574 2.78-2.256 3.562-1.892 2.172-6.02 5.108-10.605 7.545-2.277 1.21-4.14 2.3-4.142 2.424 0 .125.993.783 2.21 1.463 4.693 2.625 9.01 7.882 12.68 15.44 1.654 3.41 1.723 3.66 1.37 4.968-.73 2.72-3.672 4.01-5.42 2.382-.436-.406-1.682-2.622-2.77-4.925-1.09-2.303-2.615-5.13-3.392-6.285-2.005-2.977-5.518-6.318-7.9-7.512-1.88-.94-2.295-1.016-5.694-1.016-3.447 0-3.708-.048-4.316-.8-.356-.438-.647-1.11-.647-1.493 0-1.4-.415-.19-1.844 5.39-2.958 11.55-4.36 16.166-5.15 16.956-1.053 1.056-3.25 1.06-3.986.01zm17.247-27.68c7.153-2.91 13.646-6.775 16.84-10.025 4.037-4.104 2.504-6.897-4.163-7.587-4.492-.465-12.26.418-13.15 1.495-.176.212-1.477 4.345-2.893 9.184-1.415 4.84-2.655 9.06-2.756 9.378-.15.484.066.44 1.32-.26.826-.462 2.987-1.444 4.804-2.183zm47.18 27.792c-2.592-.83-3.903-1.895-4.94-4.016-.796-1.624-.866-2.074-.7-4.483.14-2.06.073-2.77-.292-3.073-.277-.23-.474-1.02-.474-1.902 0-1.256.175-1.666 1.05-2.46.58-.525 1.273-1.16 1.543-1.413.27-.252 1.265-1.677 2.21-3.166 4.527-7.14 11.607-11.382 17.224-10.317 4.02.762 5.728 2.76 5.72 6.7-.005 3.878-2.62 7.267-7.22 9.36-2.594 1.182-6.778 2.375-9.528 2.718-3.484.435-3.51.448-3.913 1.94-1.667 6.19 6.61 7.847 14.912 2.986 5.123-3 6.587-3.4 6.964-1.9.313 1.252-.452 3.12-1.825 4.454-1.653 1.605-6.79 4.095-9.708 4.704-3.305.69-8.653.624-11.022-.134zm8.316-18.313c4.28-1.094 6.932-3.112 6.936-5.277.004-1.986-2.974-2.53-5.558-1.016-1.607.942-4.995 4.44-5.79 5.978l-.513.993h1.14c.625 0 2.33-.305 3.785-.678zM304.45 851.61c-1.544-1.544-1.45-2.083 3.728-21.228 3.106-11.49 4.385-17.17 4.385-19.48 0-.91-.072-.966-1-.763-1.75.384-5.81 2.066-10.13 4.197-4.856 2.395-6.318 2.625-7.46 1.175-.775-.987-.92-2.804-.312-3.94.643-1.2 1.624-1.825 5.873-3.75 10.503-4.752 20.756-7 31.982-7.008 8.512-.007 10.352.638 10.29 3.61-.038 1.678-.88 2.876-2.025 2.876-.358 0-3.164-.105-6.235-.232-5.343-.223-11.466.168-13.306.85-.62.228-.775.71-1.124 3.487-.248 1.97-1.266 6.1-2.62 10.625-2.494 8.34-6.45 23.983-6.82 26.974-.306 2.477-1.06 3.273-3.1 3.273-1 0-1.668-.21-2.127-.668zm115.464-35.746c-.978-1.748.522-3.192 7.855-7.562 6.68-3.98 7.98-4.493 9.02-3.55.832.752.705 1.97-.39 3.74-.574.93-1.91 1.744-7.426 4.523-6.76 3.405-8.45 3.937-9.06 2.85zm-250.28-34.543c-.124-.124-.225-6.368-.225-13.875v-13.65h-4.55c-2.83 0-4.632-.135-4.77-.357-.12-.197-.127-.732-.012-1.19l.21-.83 10.567.088 10.568.09V753.626l-4.653.094-4.654.094v27.732h-1.128c-.62 0-1.23-.1-1.353-.225zm33.956-14.642c0-14.57.013-14.872.677-15.082.372-.12.98-.12 1.353 0 .646.204.677.512.677 6.622v6.407h15.215l.092-6.515.092-6.514H223.727l.088 14.975.088 14.976h-2.376v-14.552h-15.229v14.552h-2.707v-14.868zm46.257 14.65c-.127-.13-.23-6.726-.23-14.66 0-10.772.102-14.532.405-14.836.29-.29 2.488-.406 7.744-.406 6.71 0 7.35.05 7.48.593.078.324.084.857.015 1.183-.115.54-.705.592-6.532.592h-6.405v10.814l5.67.09 5.667.094v2.03l-5.668.092-5.67.093V779.5l6.685.093 6.684.092v1.693l-7.805.09c-4.293.05-7.91-.013-8.038-.14zm36.066-.205c9.855-26.424 10.923-29.116 11.68-29.46.512-.234 1.097-.247 1.69-.04.835.295 1.337 1.493 6.232 14.868 2.928 8.002 5.33 14.663 5.34 14.802.01.14-.65.254-1.466.254h-1.483l-1.463-4.23-1.462-4.23H291.75l-1.475 4.23-1.474 4.23h-1.522c-1.077 0-1.477-.125-1.365-.424zm18.133-10.694c-.062-.16-1.324-3.738-2.805-7.954-1.48-4.216-2.78-7.665-2.89-7.665-.11 0-.52.952-.91 2.116-.388 1.163-1.632 4.742-2.764 7.953l-2.057 5.837h5.77c3.172 0 5.718-.13 5.656-.288zm34.576-2.76v-13.875h-4.7c-4.194 0-4.713-.063-4.84-.592-.077-.326-.083-.86-.014-1.184.118-.55.908-.594 10.763-.594h10.636v2.37H340.99v27.752h-2.368V767.67zm33.842-.833v-14.71l.732-.392c.944-.505 9.41-.205 11.206.397 3.263 1.094 5.182 4.102 4.92 7.713-.194 2.694-1.3 4.348-3.776 5.644l-1.88.983 1.168.962c.642.53 1.534 1.598 1.98 2.376.9 1.564 4.602 10.702 4.602 11.36 0 .278-.462.38-1.395.31l-1.394-.103-1.96-5.016c-1.078-2.757-2.37-5.608-2.873-6.332-1.297-1.872-3.19-2.696-6.19-2.696h-2.432V781.545H372.465v-14.71zm10.587-2.34c.6-.256 1.537-.94 2.083-1.522 1.278-1.36 1.61-4.334.7-6.252-1.008-2.125-2.463-2.736-6.854-2.878l-3.81-.123v11.24h3.397c2.13 0 3.8-.172 4.484-.465zm31.61 16.83c-.127-.128-.23-6.725-.23-14.66 0-10.77.102-14.53.405-14.835.29-.29 2.488-.406 7.744-.406 6.708 0 7.35.05 7.48.593.077.324.084.857.014 1.183-.116.54-.706.592-6.532.592h-6.406v10.814l5.67.09 5.668.094v2.03l-5.67.092-5.668.093V779.5l6.684.093 6.684.092v1.693l-7.806.09c-4.293.05-7.91-.013-8.037-.14z" fill="#f03"/><path d="M8.143 941.704c-4.52-179 241.952-30 241.943-184.574 149.143-2.377 57.53-207.18 206.56-203.153 5.184 145.742 17.69 243.715 14.293 384.685-3.48 18.46-2.73 17.826-25.423 21.47-86.603 16.632-437.374-18.428-437.374-18.428z" fill="#111" filter="url(#a)"/></g></svg>
