<svg xmlns="http://www.w3.org/2000/svg" width="1366" height="768" viewBox="0 0 1366 768"><path d="M0 698.152v-69.847l22.368-18.768c46.904-39.352 55.462-45.29 100.23-69.544 21.405-11.596 30.234-16.64 40.442-23.1l6.975-4.413.026-29.41.027-29.408 7.83-59.403 7.833-59.403-3.12-7.116c-4.518-10.298-5.295-13.895-4.07-18.846 1.853-7.5 7.454-16.844 18.35-30.616 10.872-13.74 27.563-31.93 41.505-45.228 12.29-11.722 14.353-12.973 31.88-19.32 9.94-3.6 15.562-6.95 19.018-11.335 6.93-8.79 8.222-19.624 5.09-42.677-.91-6.697-.87-13.336.09-15.74.43-1.077 2.66-4.68 4.952-8.008l4.17-6.05.217-8.066c.27-9.97-1.086-16.21-6.103-28.088-8.508-20.138-9.482-22.715-9.483-25.08 0-5.616 3.37-8.612 14.882-13.228 6.035-2.42 8.856-3.973 12.977-7.143 4.913-3.78 5.428-4.03 7.71-3.722 2.118.285 3.493-.176 10.246-3.43 4.29-2.068 9.29-4.203 11.112-4.745 2.78-.826 3.563-1.403 4.86-3.578.85-1.426 1.93-3.63 2.402-4.897 1.237-3.318 3.76-5.36 7.158-5.788 2.383-.302 5.436.358 18.85 4.072 9.382 2.598 17.28 4.46 19.08 4.5 4.032.087 7.15-1.263 12.542-5.43l4.402-3.404h23.88c26.157 0 31.923.467 40.176 3.255 9.577 3.234 20.75 11.19 27.386 19.503 19.443 24.356 24.212 63.202 10.717 87.287-8.875 15.838-26.15 26.93-53.877 34.59l-8.88 2.454-18.44.41c-20.563.46-23.166.852-28.538 4.312-5.55 3.574-9.812 13.772-8.404 20.106 1.255 5.638 11.208 19.628 34.367 48.305 15.422 19.095 16.77 20.97 19.36 26.946 3.972 9.156 4.7 13.966 6.796 44.87 1.178 17.367 3.19 25.79 11.92 49.905 5.248 14.497 6.294 20.66 7.532 44.363.596 11.408 1.592 25.927 2.214 32.264 1.38 14.075 1.518 34.677.288 42.923-3.284 22.012-7.935 36.957-22.75 73.106-10.182 24.84-15.298 39.306-18.26 51.63-3.3 13.728-4.076 19.64-6.307 47.984-.908 11.543-.024 22.133 2.54 30.427 1.598 5.165 1.694 6.073 1.016 9.564-1.57 8.077-7.723 21.097-15.11 31.966-6.166 9.074-11.13 14.737-18.126 20.683-4.88 4.147-7.332 5.737-11.575 7.506l-5.383 2.244-16.6.203-16.598.203v-3.408c0-5.038 1.65-6.165 15.41-10.525 4.08-1.292 8.683-2.976 10.232-3.742 3.93-1.943 7.66-5.603 8.206-8.053.25-1.13.313-6.527.137-11.99-.348-10.81-1.26-14.408-5.42-21.367-1.956-3.27-2.055-3.34-3.34-2.36-1.927 1.473-4.275 5.965-7.752 14.83-3.696 9.43-5.72 12.927-9.464 16.353-2.678 2.45-8.246 5.37-10.243 5.37-.502 0-1.895-.855-3.096-1.9-1.913-1.665-2.183-2.288-2.182-5.042 0-1.813 2.172-11.3 5.136-22.442 2.825-10.615 5.76-22.412 6.524-26.214 2.075-10.342 4.154-13.696 20.714-33.417 12.185-14.51 14.89-19.978 15.1-30.535.075-3.803.524-11.45.996-16.997.886-10.403.608-23.847-.73-35.143-.586-4.963-.208-16.6 2.102-64.762 3.048-63.548 3.07-61.01-.62-68.42-2.164-4.344-15-22.953-15.83-22.953-.285 0-1.637 1.152-3.005 2.56-11.228 11.558-36.91 57.787-45.64 82.158-6.083 16.977-4.995 24.137 7.315 48.13 10.677 20.808 12.354 26.386 12.287 40.86-.05 10.398-1.35 16.983-5.368 27.155-6.148 15.562-19.513 32.516-35.2 44.652l-6.13 4.74-.045 42.962c-.044 39.722-.16 43.918-1.538 55.637l-1.49 12.675-64.03.147c-51.01.116-64.03 0-64.016-.577.05-2.13-10.553-76.273-10.965-76.672-.267-.26-4.138 1.83-8.6 4.644-17.254 10.882-65.814 38.274-91.17 51.43-7.634 3.96-19.528 10.376-26.43 14.258L23.104 768H0v-69.848zm1063.484 61.35c-6.346-34.58-23.853-97.566-31.988-115.085-2.208-4.753-6.41-15.124-9.34-23.046-2.932-7.92-6.423-16.83-7.76-19.798-2.24-4.975-2.833-5.722-7.603-9.588-2.846-2.306-7.632-5.825-10.638-7.82-12.622-8.38-32.058-24.408-41.167-33.946-2.875-3.01-9.796-10.118-15.38-15.795-17.253-17.537-23.56-25.085-28.88-34.56-9.24-16.454-7.54-30.99 5.197-44.42 6.136-6.47 7.785-7.467 19.446-11.738 6.01-2.2 13.54-4.71 16.732-5.575 3.193-.866 12.413-3.637 20.49-6.158 30.483-9.516 52.84-15.106 79.91-19.98 16.755-3.016 49.388-7.707 60.672-8.722 18.312-1.646 23.947-2.8 29.5-6.032 4.105-2.392 4.552-3.61 6.79-18.54 3.242-21.632 2.694-31.677-2.698-49.432-2.914-9.594-5.557-15.973-9.664-23.322-1.508-2.7-3.044-6.456-3.413-8.346-1.183-6.067-3.895-9.41-11.923-14.697-3.898-2.566-10.19-6.212-13.985-8.1-8.56-4.265-12.053-6.658-16.277-11.153-3.666-3.902-5.762-7.118-7.636-11.71-3.194-7.83-2.338-15.363 3.458-30.41 8.262-21.446 8.103-25.268-1.736-41.832-6.136-10.33-7.818-14.805-7.818-20.804 0-8.12 2.765-15.072 9.29-23.363 3.78-4.803 4.222-5.626 3.184-5.94-.662-.203-6.307-.506-12.544-.675-10.902-.296-11.614-.39-18.44-2.443-24.575-7.392-33.956-9.458-56.043-12.343-13.983-1.827-18.725-2.965-23.83-5.72-8.6-4.637-14.616-11.22-17.464-19.105-.972-2.693-3.26-8.786-5.083-13.54-4.206-10.965-6.332-18.386-7.89-27.543-1.563-9.19-1.11-11.695 4.13-22.78 3.988-8.434 5.816-14.156 5.837-18.27.008-1.69.592-3 2.12-4.752L963.148 0H1366v768h-242.465v-3.71c0-2.042-.307-3.872-.683-4.068-.43-.224-.683 1.146-.683 3.71V768H1065.042l-1.56-8.498zm59.04-10.96c-.766-2.58-1.16-.865-.587 2.557.525 3.135.578 3.21.786 1.11.123-1.236.034-2.887-.198-3.668zm-48.558-226.446c4.104-4.353 7.587-8.232 7.74-8.62.167-.423-.363-.713-1.314-.72-.876-.007-10.193-.768-20.703-1.693-10.51-.924-19.2-1.604-19.31-1.512-.11.093 2.646 2.476 6.122 5.295 3.477 2.82 9.093 7.39 12.48 10.158 3.386 2.77 6.464 5.028 6.84 5.02.375-.007 4.04-3.575 8.144-7.927zm173.87-514.84c-.37-.314-1.043-.228-1.674.214-1.62 1.134-1.25 1.718.62.974 1.002-.4 1.425-.876 1.054-1.19z" fill="#d7002b"/></svg>
